<svg width="72" height="72" viewBox="0 0 72 72" fill="none" xmlns="http://www.w3.org/2000/svg">
<path d="M52.3333 1H19.6667C17.0893 1 15 3.08934 15 5.66667V29C15 31.5773 17.0893 33.6667 19.6667 33.6667H52.3333C54.9107 33.6667 57 31.5773 57 29V5.66667C57 3.08934 54.9107 1 52.3333 1Z" stroke="#FFF6A3" stroke-width="2" stroke-linecap="round" stroke-linejoin="round"/>
<path d="M15 5.6665L36 17.3332L57 5.6665" stroke="#FFF6A3" stroke-width="2" stroke-linecap="round" stroke-linejoin="round"/>
<path d="M57 8L71 1C71 26.6667 57 24.3333 57 24.3333" stroke="#FFF6A3" stroke-width="2" stroke-linecap="round" stroke-linejoin="round"/>
<path d="M15 8L1 1C1 26.6667 15 24.3333 15 24.3333" stroke="#FFF6A3" stroke-width="2" stroke-linecap="round" stroke-linejoin="round"/>
<path d="M36 47.6665V70.9998" stroke="#FFF6A3" stroke-width="2" stroke-linecap="round" stroke-linejoin="round"/>
<path d="M47.6666 43V57" stroke="#FFF6A3" stroke-width="2" stroke-linecap="round" stroke-linejoin="round"/>
<path d="M24.3334 43V57" stroke="#FFF6A3" stroke-width="2" stroke-linecap="round" stroke-linejoin="round"/>
</svg>
